<?xml version="1.0" standalone="no"?>
<!DOCTYPE svg PUBLIC "-//W3C//DTD SVG 20010904//EN"
 "http://www.w3.org/TR/2001/REC-SVG-20010904/DTD/svg10.dtd">
<svg version="1.0" xmlns="http://www.w3.org/2000/svg"
 width="316.000000pt" height="112.000000pt" viewBox="0 0 316.000000 112.000000"
 preserveAspectRatio="xMidYMid meet">
<metadata>
Created by potrace 1.15, written by Peter Selinger 2001-2017
</metadata>
<g transform="translate(0.000000,112.000000) scale(0.100000,-0.100000)"
fill="#000000" stroke="none">
<path d="M1540 465 c0 -68 -2 -75 -20 -75 -11 0 -20 -2 -20 -5 0 -4 59 -106
65 -113 4 -5 65 100 65 111 0 4 -9 7 -20 7 -18 0 -20 7 -20 75 0 73 -1 75 -25
75 -24 0 -25 -2 -25 -75z"/>
<path d="M1020 500 c-25 -16 5 -35 50 -31 29 2 42 -2 46 -13 9 -24 -14 -46
-48 -46 -44 0 -34 -33 12 -40 29 -4 36 -10 38 -32 3 -22 -2 -29 -23 -34 -14
-3 -39 -4 -55 0 -25 4 -30 2 -30 -13 0 -10 7 -22 16 -25 28 -11 84 -6 113 9
49 25 49 95 1 110 -20 6 -20 7 5 27 29 23 32 58 7 81 -21 19 -107 23 -132 7z"/>
<path d="M1257 499 c-34 -20 -53 -81 -48 -160 3 -70 96 -105 146 -54 66 65 -4
168 -86 125 -25 -14 -26 9 -1 40 12 15 29 22 55 23 29 1 37 5 37 19 0 15 -8
18 -42 18 -24 0 -51 -5 -61 -11z"/>
</g>
</svg>
