<?xml version="1.0" standalone="no"?>
<!DOCTYPE svg PUBLIC "-//W3C//DTD SVG 20010904//EN"
 "http://www.w3.org/TR/2001/REC-SVG-20010904/DTD/svg10.dtd">
<svg version="1.0" xmlns="http://www.w3.org/2000/svg"
 width="304.000000pt" height="118.000000pt" viewBox="0 0 304.000000 118.000000"
 preserveAspectRatio="xMidYMid meet">
<metadata>
Created by potrace 1.15, written by Peter Selinger 2001-2017
</metadata>
<g transform="translate(0.000000,118.000000) scale(0.100000,-0.100000)"
fill="#000000" stroke="none">
<path d="M974 539 c-5 -8 -21 -20 -37 -28 -15 -8 -30 -26 -34 -40 -5 -20 1
-31 30 -57 22 -18 37 -40 37 -54 0 -20 -3 -22 -35 -16 -31 6 -35 4 -35 -13 0
-15 9 -22 34 -26 23 -5 36 -14 39 -27 6 -20 27 -16 27 5 0 7 15 19 33 27 25
12 33 22 35 47 3 29 -2 36 -32 54 -26 15 -36 28 -36 46 0 21 4 24 27 21 40 -4
45 29 6 38 -15 4 -33 14 -39 22 -10 13 -12 13 -20 1z"/>
<path d="M1820 415 l0 -135 24 0 c21 0 25 5 28 37 4 50 20 51 52 3 19 -29 33
-40 51 -40 33 0 32 7 -10 59 -19 24 -35 46 -35 49 0 2 14 21 32 41 l32 36 -24
3 c-18 3 -34 -7 -62 -37 l-38 -40 0 79 c0 79 0 80 -25 80 l-25 0 0 -135z"/>
<path d="M2200 470 c0 -74 -1 -80 -21 -80 -20 0 -19 -2 10 -52 16 -29 33 -52
37 -51 4 1 20 24 36 52 28 49 29 51 9 51 -20 0 -21 6 -21 80 0 79 0 80 -25 80
-25 0 -25 -1 -25 -80z"/>
<path d="M1113 523 c-9 -3 -10 -10 -3 -23 8 -14 18 -17 55 -13 43 5 45 4 45
-20 0 -25 -16 -37 -51 -37 -12 0 -19 -7 -19 -19 0 -15 8 -21 31 -23 40 -4 59
-29 39 -53 -11 -14 -25 -16 -62 -12 -43 5 -48 4 -48 -13 0 -14 10 -21 35 -26
75 -14 135 18 135 72 0 23 -29 54 -50 54 -7 0 -1 9 14 21 32 25 36 73 7 89
-20 10 -106 13 -128 3z"/>
<path d="M1313 523 c-9 -3 -10 -10 -3 -23 8 -14 18 -17 55 -13 43 5 45 4 45
-20 0 -25 -16 -37 -51 -37 -12 0 -19 -7 -19 -19 0 -15 8 -21 31 -23 40 -4 59
-29 39 -53 -11 -14 -25 -16 -62 -12 -43 5 -48 4 -48 -13 0 -14 10 -21 35 -26
75 -14 135 18 135 72 0 23 -29 54 -50 54 -7 0 -1 9 14 21 32 25 36 73 7 89
-20 10 -106 13 -128 3z"/>
<path d="M1616 514 c-3 -9 -6 -38 -6 -65 l0 -49 45 0 c34 0 47 -5 55 -19 22
-42 -14 -68 -76 -56 -29 5 -34 3 -34 -13 0 -22 25 -32 78 -32 42 0 92 46 92
85 0 36 -41 75 -80 75 -25 0 -30 4 -30 25 0 23 4 25 45 25 38 0 45 3 45 20 0
18 -7 20 -64 20 -49 0 -65 -4 -70 -16z"/>
</g>
</svg>
