<?xml version="1.0" standalone="no"?>
<!DOCTYPE svg PUBLIC "-//W3C//DTD SVG 20010904//EN"
 "http://www.w3.org/TR/2001/REC-SVG-20010904/DTD/svg10.dtd">
<svg version="1.0" xmlns="http://www.w3.org/2000/svg"
 width="308.000000pt" height="114.000000pt" viewBox="0 0 308.000000 114.000000"
 preserveAspectRatio="xMidYMid meet">
<metadata>
Created by potrace 1.15, written by Peter Selinger 2001-2017
</metadata>
<g transform="translate(0.000000,114.000000) scale(0.100000,-0.100000)"
fill="#000000" stroke="none">
<path d="M1030 538 c0 -7 -15 -20 -33 -28 -25 -12 -33 -22 -35 -47 -3 -29 2
-36 32 -54 26 -15 36 -28 36 -46 0 -24 -3 -25 -35 -20 -29 5 -35 3 -35 -13 0
-19 19 -30 51 -30 12 0 19 -7 19 -20 0 -11 5 -20 10 -20 6 0 10 8 10 18 0 9
15 24 33 32 25 12 33 22 35 47 3 29 -2 36 -32 54 -26 15 -36 28 -36 46 0 23 3
25 29 20 23 -5 30 -2 34 13 5 20 -10 30 -44 30 -10 0 -19 7 -19 15 0 8 -4 15
-10 15 -5 0 -10 -6 -10 -12z"/>
<path d="M2070 415 l0 -135 25 0 c21 0 25 5 25 29 0 16 6 34 14 40 12 10 20 5
42 -28 21 -33 33 -41 57 -41 22 0 27 3 20 13 -5 6 -24 31 -43 55 l-33 43 39
40 38 39 -29 0 c-23 0 -39 -10 -67 -42 l-37 -43 -1 83 c0 81 0 82 -25 82 l-25
0 0 -135z"/>
<path d="M1602 524 c-24 -10 -33 -22 -42 -56 -23 -82 5 -171 57 -184 67 -17
107 32 106 129 -1 95 -51 141 -121 111z"/>
<path d="M1197 498 c-30 -24 -35 -33 -26 -44 10 -12 15 -12 35 1 l24 15 0 -95
c0 -95 0 -95 25 -95 l25 0 0 125 c0 123 0 125 -22 125 -13 -1 -40 -15 -61 -32z"/>
<path d="M1375 517 c-16 -13 -17 -17 -6 -31 10 -12 17 -13 27 -5 7 6 25 9 41
7 50 -6 42 -40 -26 -111 -85 -89 -83 -97 30 -97 88 0 90 1 87 23 -3 19 -10 22
-57 25 l-53 3 46 46 c53 52 65 85 45 122 -12 22 -23 26 -64 29 -32 2 -57 -2
-70 -11z"/>
<path d="M1898 501 c-29 -25 -32 -35 -36 -94 -4 -63 -3 -68 26 -97 39 -38 83
-40 117 -5 49 49 24 135 -40 135 -19 0 -37 -4 -40 -10 -14 -22 -23 -8 -13 20
10 30 40 45 81 42 11 0 17 6 17 19 0 32 -72 26 -112 -10z"/>
</g>
</svg>
