<?xml version="1.0" standalone="no"?>
<!DOCTYPE svg PUBLIC "-//W3C//DTD SVG 20010904//EN"
 "http://www.w3.org/TR/2001/REC-SVG-20010904/DTD/svg10.dtd">
<svg version="1.0" xmlns="http://www.w3.org/2000/svg"
 width="310.000000pt" height="376.000000pt" viewBox="0 0 310.000000 376.000000"
 preserveAspectRatio="xMidYMid meet">
<metadata>
Created by potrace 1.15, written by Peter Selinger 2001-2017
</metadata>
<g transform="translate(0.000000,376.000000) scale(0.100000,-0.100000)"
fill="#000000" stroke="none">
<path d="M1432 3209 c-97 -12 -207 -46 -294 -89 -103 -52 -155 -88 -238 -166
-197 -186 -303 -455 -287 -727 30 -504 435 -887 937 -887 494 0 897 373 936
867 8 90 -1 113 -41 113 -33 0 -42 -17 -49 -100 -20 -212 -102 -393 -243 -536
-486 -493 -1319 -228 -1439 458 -83 476 280 942 760 975 68 5 94 11 108 25 23
23 23 33 -2 58 -22 22 -43 23 -148 9z"/>
</g>
</svg>
