<?xml version="1.0" standalone="no"?>
<!DOCTYPE svg PUBLIC "-//W3C//DTD SVG 20010904//EN"
 "http://www.w3.org/TR/2001/REC-SVG-20010904/DTD/svg10.dtd">
<svg version="1.0" xmlns="http://www.w3.org/2000/svg"
 width="306.000000pt" height="112.000000pt" viewBox="0 0 306.000000 112.000000"
 preserveAspectRatio="xMidYMid meet">
<metadata>
Created by potrace 1.15, written by Peter Selinger 2001-2017
</metadata>
<g transform="translate(0.000000,112.000000) scale(0.100000,-0.100000)"
fill="#000000" stroke="none">
<path d="M950 502 c-31 -31 -47 -101 -36 -148 17 -68 100 -98 143 -51 31 32
34 94 7 121 -18 19 -75 21 -92 4 -20 -20 -15 16 6 42 12 15 29 22 55 23 29 1
37 5 37 19 0 15 -8 18 -46 18 -37 0 -51 -5 -74 -28z"/>
<path d="M1157 447 c-31 -45 -57 -88 -57 -95 0 -8 18 -12 55 -12 54 0 55 0 55
-30 0 -25 4 -30 25 -30 21 0 25 5 25 30 0 20 5 30 15 30 8 0 15 7 15 15 0 8
-7 15 -15 15 -12 0 -15 16 -15 80 0 77 -1 80 -23 80 -18 0 -37 -19 -80 -83z"/>
</g>
</svg>
